<svg xmlns="http://www.w3.org/2000/svg" viewBox="0 0 804.05 900.27"><defs><style>.cls-1{fill:#fc6e66;}.cls-2{fill:#488dd3;}.cls-3{fill:#f7dc5a;}.cls-4{fill:#f4b0c0;}.cls-5{fill:#0db57d;}</style></defs><g id="Layer_2" data-name="Layer 2"><g id="Layer_1-2" data-name="Layer 1"><g id="Group_2" data-name="Group 2"><path id="Path_1" data-name="Path 1" class="cls-1" d="M217,5.74c29.41-5,54.27-11.34,77.77,3.34s42.74,33.71,54.85,58.48c18.55,37.92,34.81,77.28,35.62,120.11.81,42.6-9.44,81.53-45.71,110.05-40.72,32-84,57-136.74,62.46-50.68,5.23-94.07-8.61-125.42-50.06-16-21.16-29.07-44.55-42.63-67.43-1.55-2.62,1.1-9.8,4-12.56,6.27-6,14.27-10.06,21-15.6s11.32-4.09,15.46,2.72c10.52,17.32,20.68,34.88,31.69,51.89,28.86,44.57,63.7,50,107.21,42,35.28-6.5,64.28-25.93,92.64-46.88,22.94-17,31.06-40.94,30.65-66.74-.76-47.15-16-90.36-45.07-128-12.66-16.39-28.35-24-50.61-21.11-44,5.82-83.06,18.75-106.81,59.79-10.19,17.6-15.21,36.08-5.73,55.68,9,18.5,16.83,37.81,28,54.88,14.77,22.49,34.24,25,56.19,9.52A503.78,503.78,0,0,0,253.83,197c11.52-10,15.61-22.95,8.18-37.56-5.21-10.23-10.33-20.57-16.5-30.21-5.29-8.26-13-11.06-22.67-6.17-7.4,3.74-15.6,6-22.73,10.14-2.51,1.45-4.93,8.45-3.82,9.69,2.82,3.14,8.28,6.88,11.6,6,15.5-3.87,16.9-4.44,21.89,10.4,2.94,8.77,16.57,18.57,7.32,26.09-13,10.59-29,20.64-48.15,15.09-23.89-6.9-50.51-49.46-44.69-73.57,2-8.21,7.76-16.92,14.32-22.35,18.26-15.08,39.73-24.06,62.84-30,22.82-5.87,40.9,1.18,55.79,17.41,19.81,21.57,32.33,47.07,35.4,76.49,2.49,23.8-6.06,44.11-23.27,60.08-23.59,21.89-48,43.26-79.55,53-32.17,9.9-60.52.84-82.31-23.53C97.07,224,77.6,183.79,76.7,137.58c-.59-29.75,15.34-54.52,34-76.91C139.64,26.05,177.91,10,217,5.74Z"/><path id="Path_2" data-name="Path 2" class="cls-2" d="M26,744.52c-7.79-15.93-14.56-28.34-20-41.31-9.55-22.58-7.11-45.56,3.82-66.43,10-19.08,21.5-38,35.72-54.06C75.81,548.57,108,516,140.19,483.61c7.3-7.36,17.37-12.33,26.8-17.15q14.74-7.53,26.47,5.89c21.54,24.67,18.85,52.49-9.57,73.86-15.12,11.37-32.36,19.87-48.53,29.85-13.58,8.39-27.63,16.22-40.16,26-4.81,3.75-9.3,13.16-7.8,18.15,1.3,4.33,11.08,7.8,17.44,8.48,8.12.87,16.7-.88,24.89-2.5,39-7.69,78.26-8.22,116.92.53,16.33,3.69,33,10.56,46.73,20,28.66,19.74,20,46.75-7.8,59.11-13.34,5.93-29.65,5.08-44.58,7.55-19.41,3.21-38.91,6.07-58.07,10.37-5.81,1.3-11.48,6.1-15.81,10.64-16,16.81-9.52,41.57,13.24,45.92,17.33,3.3,35.49,2.4,53.3,2.94,24.7.74,49.47.21,74.1,1.94,13.2.92,27.94,4.35,31.95,19.65s-6.69,26-17.56,34.64c-26.26,20.85-58,25.63-90,29.1-74.35,8-129.28-26.37-174.69-80.65C45.25,773.39,35.07,757.15,26,744.52Z"/><path id="Path_3" data-name="Path 3" class="cls-3" d="M473.66,576.28c-22,11.29-42.86,25.84-66.14,33.21-54.24,17.16-110.52-10.41-139.43-64.1-11.33-21-19.28-42.93-19.46-66.59-.21-27.16,10.05-50.36,29-69.4,26.4-26.5,55.87-48.23,93.21-56.46,27.79-6.11,52.79,2.52,74.46,20.86,35.56,30.11,55,70.74,69,113.52,11.14,34.05-5.83,59.19-31.49,79.21-3.36,2.63-6.89,5-10.35,7.54Z"/><path id="Path_7" data-name="Path 7" class="cls-4" d="M386.73,274.64c10.67-12.71,20.58-26.22,32.52-37.62,3.33-3.17,14-2.39,19,.55a639.32,639.32,0,0,1,55.62,36.75c12.83,9.52,24.07,21.2,38.12,30.6-9.1-17.41-17.53-35.2-27.47-52.11-10.19-17.31-20.18-35.23-33.35-50.15-13-14.76-29.91-26.1-46-39.73,5.16-8.56,11-19.07,17.86-28.89,1.17-1.68,7.3-1.83,9.82-.38,26.37,15.14,49.31,34.13,65.88,60.12,7.87,12.35,16,24.59,24.47,36.5,12.76,17.88,16.69,38.75,21.58,59.42,1.64,6.94,4.65,13.55,7,20.32l3.47-.53c-.07-15.71-.24-31.43-.19-47.14.18-56.83,9.81-111.44,37.27-162.08,5-9.23,10-14.77,21.94-13.09,12.46,1.75,25.3.81,40.92,1.11-6.35,15.79-11.71,29.21-17.14,42.59-14,34.57-29.17,68.74-41.73,103.83-8.18,22.85-9.14,47.26-3.32,71.81.29-3.85.68-7.7.84-11.55a81.05,81.05,0,0,0,0-12.07c-3.34-30,7.89-56.08,22.56-81,22.71-38.62,47.09-76,81.93-105.2C727,89.42,736.44,83,745.7,76.52c5.46-3.83,10.13-3.31,13.22,3.46,2,4.32,5.48,8.14,6.49,12.6.64,2.87-1.11,8.46-3.31,9.45-27.42,12.31-46.46,33.63-60.05,59.09-22.08,41.38-41.74,84-48.88,131.07a76.88,76.88,0,0,0-.64,12,12,12,0,0,0,2.84,7.62c4.91-14.7,9.49-29.52,14.79-44.07,11.56-31.69,25.42-62.52,55.37-81,17.51-10.79,37-18.69,56.38-26,9.72-3.66,24.8,14.32,21.74,24.48-.55,1.83-3.5,3.8-5.6,4.16-57.72,10-86.35,50.26-103.13,101.23a261.3,261.3,0,0,0-9,129c1.14,6.43-.75,9.94-6.93,11.2-26.18,5.3-52.26,11.31-78.65,15.22-6.24.92-15.64-3.54-20-8.61-21.2-24.7-40.53-51-61.76-75.67-18.11-21-37.08-41.46-57.15-60.61-18.51-17.67-41.45-25.82-67.57-22.79a18.34,18.34,0,0,1-4.18-.46C388.7,276.89,387.71,275.77,386.73,274.64Z"/><path id="Path_8" data-name="Path 8" class="cls-5" d="M489.08,878.57a65,65,0,0,1-6,2.83C465,887.31,447,893.14,429,899.05c-4.62,1.51-8.87,2.88-12.25-4.16-23.56-49.16-35.31-155.07-.47-211.38,15.83-25.59,36.83-43.07,62.36-53.76,37-15.51,75.28-25.46,116.38-23.35,39.42,2,70,24,93.27,62.39,25.57,42.14,41,88.68,50.49,137.37.6,3.11-2.29,9.13-4.79,10-13.84,4.68-28.1,8-42.14,12.13-6.33,1.84-8.87-1.89-11.52-8.36-9.43-23-19-46-29.31-68.59-4.26-9.36-10.2-17.89-15.79-26.46C610.38,686.8,578.43,676,542,683.13c-5.8,1.13-11.44,3-17.21,4.29-32.28,7.28-47.94,31.46-51.07,69C470.33,797.29,473.14,837.7,489.08,878.57Z"/></g></g></g></svg>